<svg version="1.1" id="Layer_1" xmlns="http://www.w3.org/2000/svg" xmlns:xlink="http://www.w3.org/1999/xlink" x="0px" y="0px"
	 width="100%" viewBox="0 0 1024 1024" enable-background="new 0 0 1024 1024" xml:space="preserve">
<path fill="#000000" opacity="1.000000" stroke="none" 
	d="
M599.384277,762.451782 
	C587.378418,769.476135 575.106140,774.987244 562.168945,779.046021 
	C558.856812,780.085205 556.370972,779.669678 553.511597,777.398499 
	C540.371887,766.961731 524.900208,761.256226 509.134125,756.212769 
	C503.716919,754.479797 498.370880,752.524414 492.992371,750.670593 
	C493.083771,750.161926 493.175171,749.653320 493.266571,749.144653 
	C499.610443,748.761597 505.951263,748.315125 512.298767,748.006592 
	C537.160828,746.798035 555.928650,734.110840 571.846375,716.238525 
	C581.784302,705.080261 588.603943,692.131653 591.491211,677.460144 
	C596.751526,650.730103 590.556702,626.507324 574.044373,605.003174 
	C559.918945,586.607422 540.691040,574.534424 520.765381,563.582031 
	C489.093506,546.173096 456.015167,531.417175 424.803497,513.138794 
	C403.720367,500.791931 383.961426,486.699982 368.155548,467.721619 
	C350.218353,446.184143 340.214050,421.355103 338.029205,393.503143 
	C335.711914,363.963318 340.301025,335.756104 355.237885,309.651031 
	C370.088287,283.697052 392.012726,265.645874 418.387390,252.540939 
	C426.437012,248.541275 434.774261,245.133881 443.328461,242.288956 
	C446.717560,241.161819 449.635162,241.256638 452.703827,243.471878 
	C465.229553,252.514236 479.867432,256.615143 494.405151,260.924194 
	C500.571320,262.751862 506.700531,264.704071 512.768799,267.185974 
	C509.299408,268.850372 505.730469,268.257446 502.265503,268.273712 
	C477.854370,268.388336 457.011017,277.416199 439.771484,294.294922 
	C409.653625,323.782471 406.912109,368.861298 432.266388,402.627655 
	C445.148743,419.784210 462.312897,431.315582 480.807251,441.110107 
	C505.093811,453.972137 529.868896,465.918579 554.057495,478.956970 
	C579.132080,492.472992 603.748535,506.759155 625.037537,526.130554 
	C650.984070,549.740112 664.172668,579.466125 668.238342,613.727295 
	C671.201660,638.698792 669.541626,663.346497 661.092834,687.156189 
	C649.633301,719.450806 628.696594,744.206726 599.384277,762.451782 
z"/>
<path fill="#000000" opacity="1.000000" stroke="none" 
	d="
M501.522369,769.323608 
	C517.648987,774.907593 533.386658,780.477234 547.197815,790.105347 
	C560.770996,799.567627 572.024231,810.829773 574.632202,828.296204 
	C575.227844,832.285095 573.892944,833.115112 570.289429,832.040222 
	C537.088562,822.136719 503.044891,815.791077 469.310516,808.132507 
	C442.384460,802.019531 415.369385,796.263489 389.162537,787.316772 
	C362.772400,778.307495 340.397308,763.093079 320.358276,744.029419 
	C290.619385,715.738037 265.761322,683.906982 248.559906,646.386536 
	C234.543762,615.814148 226.513794,584.014954 227.939713,550.150635 
	C228.739670,531.152100 232.011017,512.472778 235.151596,493.781433 
	C238.896698,471.492279 240.188965,449.155487 237.164932,426.671448 
	C236.876938,424.530121 236.797287,422.354950 236.720886,420.191956 
	C236.417389,411.599457 238.956863,409.821960 247.508530,412.441803 
	C256.540863,415.208954 263.325806,421.016968 268.491211,428.605957 
	C277.806885,442.292603 282.416901,457.712372 283.162598,474.120819 
	C283.721954,486.428101 282.847992,498.801544 283.435181,511.106262 
	C284.541473,534.289673 289.662720,556.256531 305.003815,574.717285 
	C313.650055,585.121704 324.781891,592.438354 336.907318,597.417786 
	C361.643250,607.575928 382.562286,623.210938 403.234039,639.631470 
	C419.920776,652.886414 437.421692,665.116333 454.563110,677.798767 
	C455.902374,678.789734 457.286804,679.721924 458.597473,680.748840 
	C467.887360,688.027527 470.241547,695.305115 466.157990,704.037964 
	C461.561615,713.867493 451.420990,719.127319 441.099426,716.800659 
	C429.633331,714.215942 420.229797,707.367676 410.399780,701.468506 
	C403.400299,697.268005 396.580353,692.765869 389.027954,689.572083 
	C387.189270,688.794495 385.349670,687.917725 383.421234,687.480713 
	C381.227905,686.983765 378.476227,685.917786 377.002747,688.345886 
	C375.762970,690.388977 377.993256,691.980347 379.149048,693.491394 
	C403.022797,724.703674 433.897278,746.209595 470.798553,759.235779 
	C480.836945,762.779358 491.033691,765.874268 501.522369,769.323608 
z"/>
<path fill="#000000" opacity="1.000000" stroke="none" 
	d="
M761.487305,365.595703 
	C772.681213,388.511871 780.757568,412.034912 783.987915,437.051117 
	C786.483459,456.377228 785.062012,475.587860 781.866272,494.724548 
	C778.497742,514.895691 773.831421,534.914368 774.257080,555.551331 
	C774.500793,567.368958 775.848083,579.102417 777.261719,590.829773 
	C777.992493,596.891968 777.564819,597.122681 771.737793,597.389465 
	C758.199707,598.009277 749.000122,591.033508 742.114258,580.338196 
	C734.073730,567.849365 730.734314,553.865906 729.662659,539.195740 
	C728.763306,526.883606 729.192139,514.547852 728.729736,502.234161 
	C727.635071,473.085938 717.541931,448.025116 694.832153,428.809998 
	C689.956665,424.684784 684.656738,421.066620 678.774292,418.798065 
	C654.863281,409.576782 634.114197,395.260071 613.752075,380.056152 
	C593.069641,364.613129 571.826843,349.920624 550.827759,334.901733 
	C543.286804,329.508301 540.575989,320.917908 543.897766,312.913757 
	C547.506897,304.217285 556.806091,298.680847 565.501770,300.114319 
	C570.659546,300.964508 575.375977,303.019775 579.928894,305.529877 
	C591.889160,312.123688 603.888550,318.646576 615.838013,325.259857 
	C619.662720,327.376556 623.787781,328.658020 627.892151,330.031616 
	C629.695251,330.635040 631.653992,331.196442 632.943909,329.430389 
	C634.401733,327.434509 632.508240,325.934265 631.403320,324.683167 
	C618.918823,310.547119 605.695801,297.238281 590.062317,286.453979 
	C569.334167,272.155334 546.016907,263.860962 522.300476,256.355347 
	C508.970581,252.136765 495.509186,248.298782 482.467041,243.214615 
	C466.977020,237.176208 452.234558,229.875626 441.183899,216.912918 
	C434.236786,208.763779 430.116577,199.365967 429.242065,188.978607 
	C430.781982,187.541840 431.917511,187.921570 433.028046,188.267136 
	C465.974457,198.519165 499.865967,204.708435 533.567078,211.732819 
	C558.968872,217.027390 584.314758,222.589279 609.703796,227.945908 
	C630.364502,232.304932 648.458008,241.935913 664.927063,254.813019 
	C689.929077,274.362030 713.385742,295.563934 733.307129,320.405487 
	C744.401672,334.240051 753.326111,349.470306 761.487305,365.595703 
z"/>
</svg>